<svg viewBox="0 0 600 300" xmlns="http://www.w3.org/2000/svg">

  <rect width="100%" height="100%" fill="black"/>

  <defs>
    <filter id="glow">
      <feGaussianBlur stdDeviation="4" result="coloredBlur"/>
      <feMerge>
        <feMergeNode in="coloredBlur"/>
        <feMergeNode in="SourceGraphic"/>
      </feMerge>
    </filter>
  </defs>

  <!-- SCALE LAYER -->
  <g transform="scale(0.4)">

    <!-- BOUNCE LAYER -->
    <g filter="url(#glow)">

      <!-- Horizontal (6s loop) -->
      <animateTransform
        attributeName="transform"
        type="translate"
        values="0,0; 1000,0; 0,0"
        dur="6s"
        repeatCount="indefinite" />

      <!-- Vertical (4s loop) -->
      <animateTransform
        attributeName="transform"
        type="translate"
        additive="sum"
        values="0,0; 0,600; 0,0"
        dur="4s"
        repeatCount="indefinite" />

      <!-- YOUR DVD PATH -->
      <path
        d="M 220.29624,349.40512 C 119.77567,348.27384 34.925889,336.66936 19.410398,321.93098 c -3.17132,-3.01248 -3.35128,-6.97351 -0.44174,-9.72298 3.475692,-3.28448 15.233935,-8.16305 26.96513,-11.188 34.723531,-8.95364 83.458372,-13.91237 156.795602,-15.95383 19.26026,-0.53614 35.09594,-1.06176 35.19041,-1.16804 0.18127,-0.20394 -40.69524,-118.90478 -41.77006,-121.29562 -0.47919,-1.06593 -0.70937,-0.91411 -0.98266,0.64812 -0.19629,1.12205 0.0752,2.85223 0.60331,3.84483 0.52811,0.99259 1.4247,5.76641 1.99241,10.60846 1.40701,12.00054 0.22027,19.29002 -4.75301,29.19513 -10.97629,21.86112 -36.72285,38.65274 -70.96541,46.28283 -11.44609,2.55048 -11.83226,2.57231 -51.893584,2.93443 -33.194315,0.30004 -40.353663,0.14535 -40.316533,-0.8711 0.02483,-0.67976 4.306765,-19.61008 9.515408,-42.06738 l 9.470262,-40.83145 22.773935,-0.24821 c 13.841737,-0.15086 22.773936,0.0954 22.773936,0.62784 0,0.94217 -11.711388,52.36595 -12.541247,55.06763 -0.453518,1.47646 0.394496,1.62397 9.335864,1.62397 26.201739,0 48.529639,-10.1883 55.630909,-25.38461 9.30306,-19.90802 0.81029,-35.17774 -22.22755,-39.96437 -5.66891,-1.17785 -13.59778,-1.46612 -40.324739,-1.46612 H 50.972675 l 0.520476,-2.08797 c 0.286261,-1.14839 1.66066,-7.09911 3.054219,-13.22383 l 2.533744,-11.13585 h 87.088906 87.0889 l 9.83455,29.89443 c 5.409,16.44194 10.83022,34.025 12.04716,39.07347 l 2.21262,9.17903 1.9958,-3.5311 c 4.31373,-7.6321 20.49035,-28.64327 44.11927,-57.30474 l 14.74828,-17.88942 56.28828,0.3787 c 47.86314,0.32202 57.31997,0.60728 63.18106,1.90587 18.14986,4.02128 30.7278,10.15572 40.23683,19.62406 14.43661,14.37482 16.92835,30.97947 7.50128,49.98751 -5.02263,10.12724 -17.73124,23.01282 -29.6403,30.05305 -15.15699,8.96029 -35.54634,15.58735 -54.97356,17.86781 -12.12209,1.42295 -78.42856,1.23321 -78.37183,-0.22426 0.0248,-0.63799 4.30676,-19.53414 9.51541,-41.99144 l 9.47026,-40.83145 22.77393,-0.24821 c 13.00221,-0.14171 22.77394,0.10884 22.77394,0.58393 0,0.45767 -2.90604,13.2817 -6.45787,28.49784 -3.55183,15.21614 -6.45787,27.85637 -6.45787,28.0894 0,1.16241 26.11599,-0.87826 32.97234,-2.57642 20.77095,-5.14449 34.19381,-17.94189 35.88445,-34.21237 1.13678,-10.94022 -3.10211,-18.66651 -13.20286,-24.06504 -9.59077,-5.12595 -15.76461,-5.813 -52.23551,-5.813 h -32.63893 l -16.94859,19.71973 c -9.32173,10.84586 -32.6806,38.01606 -51.90861,60.37824 -19.228,22.36217 -34.80569,40.81371 -34.61709,41.00343 0.18861,0.18972 16.52597,0.79451 36.30526,1.34399 75.66936,2.10212 121.17332,6.70283 157.09994,15.88369 20.61211,5.26732 29.9304,10.29934 29.9304,16.16289 0,3.50912 -2.61751,5.94103 -10.23474,9.509 -31.12804,14.58064 -126.89702,23.98636 -232.16598,22.80164 z m 41.08677,-23.04667 c 9.37214,-1.38523 14.97418,-3.04568 18.81416,-5.57655 12.12923,-7.9942 -26.49845,-16.26031 -62.82246,-13.44368 -32.61755,2.52924 -45.34641,9.18697 -29.68791,15.52806 13.38433,5.42013 49.17682,7.1162 73.69621,3.49217 z"
        fill="#ff00ff">

        <!-- Synced 12s master color cycle -->
        <animate attributeName="fill"
          values="#ff00ff;#00ffff;#00ff00;#ffff00;#ff0000;#ff00ff"
          dur="12s"
          repeatCount="indefinite"/>
      </path>

    </g>
  </g>
</svg>
